<svg width="32" height="32" viewBox="0 0 32 32" fill="none" xmlns="http://www.w3.org/2000/svg">
  <defs>
    <linearGradient id="fire" x1="16" y1="3" x2="16" y2="30" gradientUnits="userSpaceOnUse">
      <stop stop-color="#ffb300"/>
      <stop offset="0.45" stop-color="#ff5f1f"/>
      <stop offset="1" stop-color="#ff2d55"/>
    </linearGradient>
    <linearGradient id="innerFire" x1="16" y1="12" x2="16" y2="28" gradientUnits="userSpaceOnUse">
      <stop stop-color="#fff2b0"/>
      <stop offset="1" stop-color="#ff8a1f"/>
    </linearGradient>
  </defs>
  <rect width="32" height="32" rx="8" fill="#0a0a0f"/>
  <path d="M17.6 3c.9 4.2-.7 6.5-2.7 8.6-2 2.1-4.4 4-4.4 8.1A8.5 8.5 0 0 0 24 20c0-3-1.3-5.4-2.7-7.2-.6 1-1.5 1.7-2.6 2 .9-3.1.4-7.8-1.1-11.8Z" fill="url(#fire)"/>
  <path d="M16.4 15.6c.6 1.9-.1 3-1 4-.9 1-2 1.9-2 3.8a3.3 3.3 0 0 0 6.6-.2c0-1.6-.8-2.9-1.6-3.9-.7 1-1.6 1.3-2.4 1.3.7-1.6.8-3.4.4-5Z" fill="url(#innerFire)"/>
</svg>
